<svg width="76" height="75" viewBox="0 0 76 75" fill="none" xmlns="http://www.w3.org/2000/svg">
<rect x="0.5" width="75" height="75" rx="5" fill="#201A23"/>
<path d="M38 17.6875C26.7793 17.6875 17.6875 26.7793 17.6875 38V41.9062C17.6875 43.2051 16.6426 44.25 15.3438 44.25C14.0449 44.25 13 43.2051 13 41.9062V38C13 24.1914 24.1914 13 38 13C51.8086 13 63 24.1914 63 38V52.0723C63 56.8184 59.1523 60.666 54.3965 60.666L43.625 60.6562C42.8145 62.0527 41.3008 63 39.5625 63H36.4375C33.8496 63 31.75 60.9004 31.75 58.3125C31.75 55.7246 33.8496 53.625 36.4375 53.625H39.5625C41.3008 53.625 42.8145 54.5723 43.625 55.9688L54.4062 55.9785C56.5645 55.9785 58.3125 54.2305 58.3125 52.0723V38C58.3125 26.7793 49.2207 17.6875 38 17.6875ZM27.0625 33.3125H28.625C30.3535 33.3125 31.75 34.709 31.75 36.4375V47.375C31.75 49.1035 30.3535 50.5 28.625 50.5H27.0625C23.6152 50.5 20.8125 47.6973 20.8125 44.25V39.5625C20.8125 36.1152 23.6152 33.3125 27.0625 33.3125ZM48.9375 33.3125C52.3848 33.3125 55.1875 36.1152 55.1875 39.5625V44.25C55.1875 47.6973 52.3848 50.5 48.9375 50.5H47.375C45.6465 50.5 44.25 49.1035 44.25 47.375V36.4375C44.25 34.709 45.6465 33.3125 47.375 33.3125H48.9375Z" fill="#F2F4F3"/>
</svg>
