<svg width="76" height="75" viewBox="0 0 76 75" fill="none" xmlns="http://www.w3.org/2000/svg">
<rect x="0.5" width="75" height="75" rx="5" fill="#201A23"/>
<path d="M12.6519 37.7254C10.2857 39.0751 10.5056 42.6744 13.0289 43.7207L27.7185 49.8416V60.65C27.7185 62.5438 29.2471 64.0714 31.1422 64.0714C32.1578 64.0714 33.1211 63.6215 33.7702 62.8368L40.2617 55.0627L53.2342 60.4617C55.213 61.2882 57.506 59.9908 57.8306 57.8773L64.5315 14.3508C64.7304 13.0848 64.1755 11.8083 63.118 11.0863C62.0605 10.3644 60.6785 10.3016 59.5581 10.9398L12.6519 37.7254ZM18.1069 40.3935L53.8624 19.98L30.87 45.6564L30.9956 45.761L18.1069 40.3935ZM53.1923 55.0104L35.7491 47.7385L58.1656 22.7004L53.1923 55.0104Z" fill="#F2F4F3"/>
</svg>
