<svg width="200" height="200" viewBox="0 0 200 200" fill="none" xmlns="http://www.w3.org/2000/svg">
<path d="M106.603 97.5508V88.6602C106.603 87.7422 105.861 87 104.943 87H93.9274C93.0094 87 92.2673 87.7422 92.2673 88.6602V97.7734C91.3291 97.7734 88.5409 97.5508 86.0409 97.7734H81.0409C78.5406 97.7734 79.0409 99.3555 79.0409 100.273V111.773C79.0409 113.016 81.5251 113.016 82.443 113.016L89 113C93 113 92.5407 115 92.5407 116.773V121.273C93 123.5 91.8826 126.551 93.8944 126.551C94.8944 126.551 95.0407 126.551 95.955 126.551C96.0331 126.512 99.9117 126.551 99.9898 126.551H105.5C106.75 126.551 106.5 125.5 106.584 124.266L106.5 117C106.416 114.5 105.5 112.5 110.5 113L118.049 113.016C118.967 113.016 119.709 112.273 119.709 111.355L120.041 100.051C120.541 97.5508 118.279 97.7734 116.541 97.7734H109.541C106.584 97.7734 106.603 97.7852 106.603 97.5508Z" fill="#F9C0C0"/>
<path d="M167.07 56.5039C170.02 56.5039 172.812 57.6758 174.922 59.7852C177.031 61.8945 178.203 64.6875 178.203 67.6367V146.484C178.203 149.434 177.031 152.227 174.922 154.336C172.832 156.445 170.039 157.617 167.07 157.617H33.2031C30.2539 157.617 27.4609 156.445 25.3516 154.336C23.2422 152.227 22.0703 149.434 22.0703 146.484V67.6367C22.0703 64.6875 23.2422 61.8945 25.3516 59.7852C27.4609 57.6758 30.2539 56.5039 33.2031 56.5039H167.07ZM167.07 53.5742H33.2031C25.4688 53.5742 19.1406 59.9023 19.1406 67.6367V146.484C19.1406 154.219 25.4688 160.547 33.2031 160.547H167.07C174.805 160.547 181.133 154.219 181.133 146.484V67.6367C181.133 59.9023 174.805 53.5742 167.07 53.5742Z" fill="#999999"/>
<path d="M123.184 41.6602V60.957H77.0898V41.6602H123.184ZM123.77 38.7305H76.5039C75.2148 38.7305 74.1602 39.7852 74.1602 41.0742V61.543C74.1602 62.832 75.2148 63.8867 76.5039 63.8867H123.77C125.059 63.8867 126.113 62.832 126.113 61.543V41.0742C126.113 39.7852 125.059 38.7305 123.77 38.7305ZM53.7695 50.6445V53.5156H41.7188V50.6445H53.7695ZM54.3555 47.7148H41.1328C39.8438 47.7148 38.7891 48.7695 38.7891 50.0586V54.1016C38.7891 55.3906 39.8438 56.4453 41.1328 56.4453H54.3555C55.6445 56.4453 56.6992 55.3906 56.6992 54.1016V50.0586C56.6992 48.7695 55.6445 47.7148 54.3555 47.7148ZM158.555 50.6445V53.5156H146.504V50.6445H158.555ZM159.141 47.7148H145.918C144.629 47.7148 143.574 48.7695 143.574 50.0586V54.1016C143.574 55.3906 144.629 56.4453 145.918 56.4453H159.141C160.43 56.4453 161.484 55.3906 161.484 54.1016V50.0586C161.484 48.7695 160.43 47.7148 159.141 47.7148ZM100.254 79.9609C108.223 79.9609 115.703 83.0664 121.348 88.6914C126.973 94.3164 130.078 101.816 130.078 109.785C130.078 117.754 126.973 125.234 121.348 130.879C115.723 136.504 108.223 139.609 100.254 139.609C92.2852 139.609 84.8047 136.504 79.1602 130.879C73.5352 125.254 70.4297 117.754 70.4297 109.785C70.4297 101.816 73.5352 94.3359 79.1602 88.6914C84.8047 83.0664 92.2852 79.9609 100.254 79.9609ZM100.254 77.0312C82.168 77.0312 67.5 91.6992 67.5 109.785C67.5 127.871 82.168 142.539 100.254 142.539C118.34 142.539 133.008 127.871 133.008 109.785C133.008 91.6992 118.34 77.0312 100.254 77.0312Z" fill="#999999"/>
<path d="M38.7891 56.4453H56.6992V157.617H38.7891V56.4453ZM143.594 56.4453H161.504V157.617H143.594V56.4453Z" fill="#F9C0C0"/>
</svg>
