<svg width="76" height="75" viewBox="0 0 76 75" fill="none" xmlns="http://www.w3.org/2000/svg">
<rect x="0.5" width="75" height="75" rx="5" fill="#201A23"/>
<path d="M47.375 38C47.375 40.168 47.2578 42.2578 47.0527 44.25H28.957C28.7422 42.2578 28.6348 40.168 28.6348 38C28.6348 35.832 28.752 33.7422 28.957 31.75H47.0527C47.2676 33.7422 47.375 35.832 47.375 38ZM50.1875 31.75H62.209C62.7266 33.752 63 35.8418 63 38C63 40.1582 62.7266 42.248 62.209 44.25H50.1875C50.3926 42.2383 50.5 40.1484 50.5 38C50.5 35.8516 50.3926 33.7617 50.1875 31.75ZM61.1836 28.625H49.7871C48.8105 22.3848 46.877 17.1602 44.3867 13.8203C52.0332 15.8418 58.2539 21.3887 61.1738 28.625H61.1836ZM46.623 28.625H29.377C29.9727 25.0703 30.8906 21.9258 32.0137 19.377C33.0391 17.0723 34.1816 15.4023 35.2852 14.3477C36.3789 13.3125 37.2871 13 38 13C38.7129 13 39.6211 13.3125 40.7148 14.3477C41.8184 15.4023 42.9609 17.0723 43.9863 19.377C45.1191 21.916 46.0273 25.0605 46.623 28.625ZM26.2129 28.625H14.8164C17.7461 21.3887 23.957 15.8418 31.6133 13.8203C29.123 17.1602 27.1895 22.3848 26.2129 28.625ZM13.791 31.75H25.8125C25.6074 33.7617 25.5 35.8516 25.5 38C25.5 40.1484 25.6074 42.2383 25.8125 44.25H13.791C13.2734 42.248 13 40.1582 13 38C13 35.8418 13.2734 33.752 13.791 31.75ZM32.0137 56.6133C30.8809 54.0742 29.9727 50.9297 29.377 47.375H46.623C46.0273 50.9297 45.1094 54.0742 43.9863 56.6133C42.9609 58.918 41.8184 60.5879 40.7148 61.6426C39.6211 62.6875 38.7129 63 38 63C37.2871 63 36.3789 62.6875 35.2852 61.6523C34.1816 60.5977 33.0391 58.9277 32.0137 56.623V56.6133ZM26.2129 47.375C27.1895 53.6152 29.123 58.8398 31.6133 62.1797C23.957 60.1582 17.7461 54.6113 14.8164 47.375H26.2129ZM61.1836 47.375C58.2539 54.6113 52.043 60.1582 44.3965 62.1797C46.8867 58.8398 48.8105 53.6152 49.7969 47.375H61.1934H61.1836Z" fill="#F2F4F3"/>
</svg>
